<svg width="1363" height="163" viewBox="0 0 1363 163" fill="none" xmlns="http://www.w3.org/2000/svg">
<path d="M0 15C0 6.71573 6.71573 0 15 0H37V163H15C6.71573 163 0 156.284 0 148V15Z" fill="#424242"/>
<rect width="1097" height="163" transform="translate(37)" fill="#F0F0F0"/>
<path d="M101.906 53.9219L94.3945 51.2383V48.0859L104.602 52.375V54.6367L101.906 53.9219ZM94.3945 56.1719L101.918 53.4297L104.602 52.7852V55.0352L94.3945 59.3242V56.1719ZM119.543 54.918H115.195V52.1758H119.543C120.215 52.1758 120.762 52.0664 121.184 51.8477C121.605 51.6211 121.914 51.3086 122.109 50.9102C122.305 50.5117 122.402 50.0625 122.402 49.5625C122.402 49.0547 122.305 48.582 122.109 48.1445C121.914 47.707 121.605 47.3555 121.184 47.0898C120.762 46.8242 120.215 46.6914 119.543 46.6914H116.414V61H112.898V43.9375H119.543C120.879 43.9375 122.023 44.1797 122.977 44.6641C123.938 45.1406 124.672 45.8008 125.18 46.6445C125.688 47.4883 125.941 48.4531 125.941 49.5391C125.941 50.6406 125.688 51.5938 125.18 52.3984C124.672 53.2031 123.938 53.8242 122.977 54.2617C122.023 54.6992 120.879 54.918 119.543 54.918ZM131.531 51.0859V61H128.156V48.3203H131.332L131.531 51.0859ZM135.352 48.2383L135.293 51.3672C135.129 51.3438 134.93 51.3242 134.695 51.3086C134.469 51.2852 134.262 51.2734 134.074 51.2734C133.598 51.2734 133.184 51.3359 132.832 51.4609C132.488 51.5781 132.199 51.7539 131.965 51.9883C131.738 52.2227 131.566 52.5078 131.449 52.8438C131.34 53.1797 131.277 53.5625 131.262 53.9922L130.582 53.7812C130.582 52.9609 130.664 52.207 130.828 51.5195C130.992 50.8242 131.23 50.2188 131.543 49.7031C131.863 49.1875 132.254 48.7891 132.715 48.5078C133.176 48.2266 133.703 48.0859 134.297 48.0859C134.484 48.0859 134.676 48.1016 134.871 48.1328C135.066 48.1562 135.227 48.1914 135.352 48.2383ZM142.547 61.2344C141.562 61.2344 140.68 61.0781 139.898 60.7656C139.117 60.4453 138.453 60.0039 137.906 59.4414C137.367 58.8789 136.953 58.2266 136.664 57.4844C136.375 56.7344 136.23 55.9375 136.23 55.0938V54.625C136.23 53.6641 136.367 52.7852 136.641 51.9883C136.914 51.1914 137.305 50.5 137.812 49.9141C138.328 49.3281 138.953 48.8789 139.688 48.5664C140.422 48.2461 141.25 48.0859 142.172 48.0859C143.07 48.0859 143.867 48.2344 144.562 48.5312C145.258 48.8281 145.84 49.25 146.309 49.7969C146.785 50.3438 147.145 51 147.387 51.7656C147.629 52.5234 147.75 53.3672 147.75 54.2969V55.7031H137.672V53.4531H144.434V53.1953C144.434 52.7266 144.348 52.3086 144.176 51.9414C144.012 51.5664 143.762 51.2695 143.426 51.0508C143.09 50.832 142.66 50.7227 142.137 50.7227C141.691 50.7227 141.309 50.8203 140.988 51.0156C140.668 51.2109 140.406 51.4844 140.203 51.8359C140.008 52.1875 139.859 52.6016 139.758 53.0781C139.664 53.5469 139.617 54.0625 139.617 54.625V55.0938C139.617 55.6016 139.688 56.0703 139.828 56.5C139.977 56.9297 140.184 57.3008 140.449 57.6133C140.723 57.9258 141.051 58.168 141.434 58.3398C141.824 58.5117 142.266 58.5977 142.758 58.5977C143.367 58.5977 143.934 58.4805 144.457 58.2461C144.988 58.0039 145.445 57.6406 145.828 57.1562L147.469 58.9375C147.203 59.3203 146.84 59.6875 146.379 60.0391C145.926 60.3906 145.379 60.6797 144.738 60.9062C144.098 61.125 143.367 61.2344 142.547 61.2344ZM157.16 58.2344V43H160.559V61H157.5L157.16 58.2344ZM149.145 54.8125V54.5664C149.145 53.5977 149.254 52.7188 149.473 51.9297C149.691 51.1328 150.012 50.4492 150.434 49.8789C150.855 49.3086 151.375 48.8672 151.992 48.5547C152.609 48.2422 153.312 48.0859 154.102 48.0859C154.844 48.0859 155.492 48.2422 156.047 48.5547C156.609 48.8672 157.086 49.3125 157.477 49.8906C157.875 50.4609 158.195 51.1367 158.438 51.918C158.68 52.6914 158.855 53.5391 158.965 54.4609V55C158.855 55.8828 158.68 56.7031 158.438 57.4609C158.195 58.2188 157.875 58.8828 157.477 59.4531C157.086 60.0156 156.609 60.4531 156.047 60.7656C155.484 61.0781 154.828 61.2344 154.078 61.2344C153.289 61.2344 152.586 61.0742 151.969 60.7539C151.359 60.4336 150.844 59.9844 150.422 59.4062C150.008 58.8281 149.691 58.1484 149.473 57.3672C149.254 56.5859 149.145 55.7344 149.145 54.8125ZM152.52 54.5664V54.8125C152.52 55.3359 152.559 55.8242 152.637 56.2773C152.723 56.7305 152.859 57.1328 153.047 57.4844C153.242 57.8281 153.492 58.0977 153.797 58.293C154.109 58.4805 154.488 58.5742 154.934 58.5742C155.512 58.5742 155.988 58.4453 156.363 58.1875C156.738 57.9219 157.023 57.5586 157.219 57.0977C157.422 56.6367 157.539 56.1055 157.57 55.5039V53.9688C157.547 53.4766 157.477 53.0352 157.359 52.6445C157.25 52.2461 157.086 51.9062 156.867 51.625C156.656 51.3438 156.391 51.125 156.07 50.9688C155.758 50.8125 155.387 50.7344 154.957 50.7344C154.52 50.7344 154.145 50.8359 153.832 51.0391C153.52 51.2344 153.266 51.5039 153.07 51.8477C152.883 52.1914 152.742 52.5977 152.648 53.0664C152.562 53.5273 152.52 54.0273 152.52 54.5664ZM166.758 48.3203V61H163.371V48.3203H166.758ZM163.16 45.0156C163.16 44.5234 163.332 44.1172 163.676 43.7969C164.02 43.4766 164.48 43.3164 165.059 43.3164C165.629 43.3164 166.086 43.4766 166.43 43.7969C166.781 44.1172 166.957 44.5234 166.957 45.0156C166.957 45.5078 166.781 45.9141 166.43 46.2344C166.086 46.5547 165.629 46.7148 165.059 46.7148C164.48 46.7148 164.02 46.5547 163.676 46.2344C163.332 45.9141 163.16 45.5078 163.16 45.0156ZM174.785 58.5977C175.199 58.5977 175.566 58.5195 175.887 58.3633C176.207 58.1992 176.457 57.9727 176.637 57.6836C176.824 57.3867 176.922 57.0391 176.93 56.6406H180.105C180.098 57.5312 179.859 58.3242 179.391 59.0195C178.922 59.707 178.293 60.25 177.504 60.6484C176.715 61.0391 175.832 61.2344 174.855 61.2344C173.871 61.2344 173.012 61.0703 172.277 60.7422C171.551 60.4141 170.945 59.9609 170.461 59.3828C169.977 58.7969 169.613 58.1172 169.371 57.3438C169.129 56.5625 169.008 55.7266 169.008 54.8359V54.4961C169.008 53.5977 169.129 52.7617 169.371 51.9883C169.613 51.207 169.977 50.5273 170.461 49.9492C170.945 49.3633 171.551 48.9062 172.277 48.5781C173.004 48.25 173.855 48.0859 174.832 48.0859C175.871 48.0859 176.781 48.2852 177.562 48.6836C178.352 49.082 178.969 49.6523 179.414 50.3945C179.867 51.1289 180.098 52 180.105 53.0078H176.93C176.922 52.5859 176.832 52.2031 176.66 51.8594C176.496 51.5156 176.254 51.2422 175.934 51.0391C175.621 50.8281 175.234 50.7227 174.773 50.7227C174.281 50.7227 173.879 50.8281 173.566 51.0391C173.254 51.2422 173.012 51.5234 172.84 51.8828C172.668 52.2344 172.547 52.6367 172.477 53.0898C172.414 53.5352 172.383 54.0039 172.383 54.4961V54.8359C172.383 55.3281 172.414 55.8008 172.477 56.2539C172.539 56.707 172.656 57.1094 172.828 57.4609C173.008 57.8125 173.254 58.0898 173.566 58.293C173.879 58.4961 174.285 58.5977 174.785 58.5977ZM181.523 54.7891V54.543C181.523 53.6133 181.656 52.7578 181.922 51.9766C182.188 51.1875 182.574 50.5039 183.082 49.9258C183.59 49.3477 184.215 48.8984 184.957 48.5781C185.699 48.25 186.551 48.0859 187.512 48.0859C188.473 48.0859 189.328 48.25 190.078 48.5781C190.828 48.8984 191.457 49.3477 191.965 49.9258C192.48 50.5039 192.871 51.1875 193.137 51.9766C193.402 52.7578 193.535 53.6133 193.535 54.543V54.7891C193.535 55.7109 193.402 56.5664 193.137 57.3555C192.871 58.1367 192.48 58.8203 191.965 59.4062C191.457 59.9844 190.832 60.4336 190.09 60.7539C189.348 61.0742 188.496 61.2344 187.535 61.2344C186.574 61.2344 185.719 61.0742 184.969 60.7539C184.227 60.4336 183.598 59.9844 183.082 59.4062C182.574 58.8203 182.188 58.1367 181.922 57.3555C181.656 56.5664 181.523 55.7109 181.523 54.7891ZM184.898 54.543V54.7891C184.898 55.3203 184.945 55.8164 185.039 56.2773C185.133 56.7383 185.281 57.1445 185.484 57.4961C185.695 57.8398 185.969 58.1094 186.305 58.3047C186.641 58.5 187.051 58.5977 187.535 58.5977C188.004 58.5977 188.406 58.5 188.742 58.3047C189.078 58.1094 189.348 57.8398 189.551 57.4961C189.754 57.1445 189.902 56.7383 189.996 56.2773C190.098 55.8164 190.148 55.3203 190.148 54.7891V54.543C190.148 54.0273 190.098 53.543 189.996 53.0898C189.902 52.6289 189.75 52.2227 189.539 51.8711C189.336 51.5117 189.066 51.2305 188.73 51.0273C188.395 50.8242 187.988 50.7227 187.512 50.7227C187.035 50.7227 186.629 50.8242 186.293 51.0273C185.965 51.2305 185.695 51.5117 185.484 51.8711C185.281 52.2227 185.133 52.6289 185.039 53.0898C184.945 53.543 184.898 54.0273 184.898 54.543ZM203.098 58.2344V43H206.496V61H203.438L203.098 58.2344ZM195.082 54.8125V54.5664C195.082 53.5977 195.191 52.7188 195.41 51.9297C195.629 51.1328 195.949 50.4492 196.371 49.8789C196.793 49.3086 197.312 48.8672 197.93 48.5547C198.547 48.2422 199.25 48.0859 200.039 48.0859C200.781 48.0859 201.43 48.2422 201.984 48.5547C202.547 48.8672 203.023 49.3125 203.414 49.8906C203.812 50.4609 204.133 51.1367 204.375 51.918C204.617 52.6914 204.793 53.5391 204.902 54.4609V55C204.793 55.8828 204.617 56.7031 204.375 57.4609C204.133 58.2188 203.812 58.8828 203.414 59.4531C203.023 60.0156 202.547 60.4531 201.984 60.7656C201.422 61.0781 200.766 61.2344 200.016 61.2344C199.227 61.2344 198.523 61.0742 197.906 60.7539C197.297 60.4336 196.781 59.9844 196.359 59.4062C195.945 58.8281 195.629 58.1484 195.41 57.3672C195.191 56.5859 195.082 55.7344 195.082 54.8125ZM198.457 54.5664V54.8125C198.457 55.3359 198.496 55.8242 198.574 56.2773C198.66 56.7305 198.797 57.1328 198.984 57.4844C199.18 57.8281 199.43 58.0977 199.734 58.293C200.047 58.4805 200.426 58.5742 200.871 58.5742C201.449 58.5742 201.926 58.4453 202.301 58.1875C202.676 57.9219 202.961 57.5586 203.156 57.0977C203.359 56.6367 203.477 56.1055 203.508 55.5039V53.9688C203.484 53.4766 203.414 53.0352 203.297 52.6445C203.188 52.2461 203.023 51.9062 202.805 51.625C202.594 51.3438 202.328 51.125 202.008 50.9688C201.695 50.8125 201.324 50.7344 200.895 50.7344C200.457 50.7344 200.082 50.8359 199.77 51.0391C199.457 51.2344 199.203 51.5039 199.008 51.8477C198.82 52.1914 198.68 52.5977 198.586 53.0664C198.5 53.5273 198.457 54.0273 198.457 54.5664ZM214.969 61.2344C213.984 61.2344 213.102 61.0781 212.32 60.7656C211.539 60.4453 210.875 60.0039 210.328 59.4414C209.789 58.8789 209.375 58.2266 209.086 57.4844C208.797 56.7344 208.652 55.9375 208.652 55.0938V54.625C208.652 53.6641 208.789 52.7852 209.062 51.9883C209.336 51.1914 209.727 50.5 210.234 49.9141C210.75 49.3281 211.375 48.8789 212.109 48.5664C212.844 48.2461 213.672 48.0859 214.594 48.0859C215.492 48.0859 216.289 48.2344 216.984 48.5312C217.68 48.8281 218.262 49.25 218.73 49.7969C219.207 50.3438 219.566 51 219.809 51.7656C220.051 52.5234 220.172 53.3672 220.172 54.2969V55.7031H210.094V53.4531H216.855V53.1953C216.855 52.7266 216.77 52.3086 216.598 51.9414C216.434 51.5664 216.184 51.2695 215.848 51.0508C215.512 50.832 215.082 50.7227 214.559 50.7227C214.113 50.7227 213.73 50.8203 213.41 51.0156C213.09 51.2109 212.828 51.4844 212.625 51.8359C212.43 52.1875 212.281 52.6016 212.18 53.0781C212.086 53.5469 212.039 54.0625 212.039 54.625V55.0938C212.039 55.6016 212.109 56.0703 212.25 56.5C212.398 56.9297 212.605 57.3008 212.871 57.6133C213.145 57.9258 213.473 58.168 213.855 58.3398C214.246 58.5117 214.688 58.5977 215.18 58.5977C215.789 58.5977 216.355 58.4805 216.879 58.2461C217.41 58.0039 217.867 57.6406 218.25 57.1562L219.891 58.9375C219.625 59.3203 219.262 59.6875 218.801 60.0391C218.348 60.3906 217.801 60.6797 217.16 60.9062C216.52 61.125 215.789 61.2344 214.969 61.2344Z" fill="#888888"/>
<path d="M109.219 107.422H100.734V101.07H109.219C110.375 101.07 111.312 100.875 112.031 100.484C112.75 100.094 113.273 99.5547 113.602 98.8672C113.945 98.1641 114.117 97.375 114.117 96.5C114.117 95.5625 113.945 94.6953 113.602 93.8984C113.273 93.1016 112.75 92.4609 112.031 91.9766C111.312 91.4766 110.375 91.2266 109.219 91.2266H103.828V119H95.6016V84.875H109.219C111.953 84.875 114.305 85.375 116.273 86.375C118.258 87.375 119.781 88.75 120.844 90.5C121.906 92.2344 122.438 94.2188 122.438 96.4531C122.438 98.6562 121.906 100.578 120.844 102.219C119.781 103.859 118.258 105.141 116.273 106.062C114.305 106.969 111.953 107.422 109.219 107.422ZM134.461 99.9219V119H126.562V93.6406H133.945L134.461 99.9219ZM141.961 93.4531L141.82 100.789C141.508 100.758 141.086 100.719 140.555 100.672C140.023 100.625 139.578 100.602 139.219 100.602C138.297 100.602 137.5 100.711 136.828 100.93C136.172 101.133 135.625 101.445 135.188 101.867C134.766 102.273 134.453 102.789 134.25 103.414C134.062 104.039 133.977 104.766 133.992 105.594L132.562 104.656C132.562 102.953 132.727 101.406 133.055 100.016C133.398 98.6094 133.883 97.3984 134.508 96.3828C135.133 95.3516 135.891 94.5625 136.781 94.0156C137.672 93.4531 138.672 93.1719 139.781 93.1719C140.172 93.1719 140.555 93.1953 140.93 93.2422C141.32 93.2891 141.664 93.3594 141.961 93.4531ZM142.852 106.578V106.086C142.852 104.227 143.117 102.516 143.648 100.953C144.18 99.375 144.961 98.0078 145.992 96.8516C147.023 95.6953 148.297 94.7969 149.812 94.1562C151.328 93.5 153.078 93.1719 155.062 93.1719C157.062 93.1719 158.82 93.5 160.336 94.1562C161.867 94.7969 163.148 95.6953 164.18 96.8516C165.211 98.0078 165.992 99.375 166.523 100.953C167.055 102.516 167.32 104.227 167.32 106.086V106.578C167.32 108.422 167.055 110.133 166.523 111.711C165.992 113.273 165.211 114.641 164.18 115.812C163.148 116.969 161.875 117.867 160.359 118.508C158.844 119.148 157.094 119.469 155.109 119.469C153.125 119.469 151.367 119.148 149.836 118.508C148.305 117.867 147.023 116.969 145.992 115.812C144.961 114.641 144.18 113.273 143.648 111.711C143.117 110.133 142.852 108.422 142.852 106.578ZM150.75 106.086V106.578C150.75 107.531 150.82 108.422 150.961 109.25C151.102 110.078 151.336 110.805 151.664 111.43C151.992 112.039 152.438 112.516 153 112.859C153.562 113.203 154.266 113.375 155.109 113.375C155.938 113.375 156.625 113.203 157.172 112.859C157.734 112.516 158.18 112.039 158.508 111.43C158.836 110.805 159.07 110.078 159.211 109.25C159.352 108.422 159.422 107.531 159.422 106.578V106.086C159.422 105.164 159.352 104.297 159.211 103.484C159.07 102.656 158.836 101.93 158.508 101.305C158.18 100.664 157.734 100.164 157.172 99.8047C156.609 99.4453 155.906 99.2656 155.062 99.2656C154.234 99.2656 153.539 99.4453 152.977 99.8047C152.43 100.164 151.992 100.664 151.664 101.305C151.336 101.93 151.102 102.656 150.961 103.484C150.82 104.297 150.75 105.164 150.75 106.086ZM184.195 93.6406V99.125H168.914V93.6406H184.195ZM172.125 87.3359H180.023V110.727C180.023 111.398 180.102 111.922 180.258 112.297C180.414 112.656 180.68 112.914 181.055 113.07C181.445 113.211 181.961 113.281 182.602 113.281C183.055 113.281 183.43 113.273 183.727 113.258C184.023 113.227 184.305 113.188 184.57 113.141V118.789C183.898 119.008 183.195 119.172 182.461 119.281C181.727 119.406 180.945 119.469 180.117 119.469C178.43 119.469 176.984 119.203 175.781 118.672C174.594 118.141 173.688 117.305 173.062 116.164C172.438 115.023 172.125 113.539 172.125 111.711V87.3359ZM185.648 106.578V106.086C185.648 104.227 185.914 102.516 186.445 100.953C186.977 99.375 187.758 98.0078 188.789 96.8516C189.82 95.6953 191.094 94.7969 192.609 94.1562C194.125 93.5 195.875 93.1719 197.859 93.1719C199.859 93.1719 201.617 93.5 203.133 94.1562C204.664 94.7969 205.945 95.6953 206.977 96.8516C208.008 98.0078 208.789 99.375 209.32 100.953C209.852 102.516 210.117 104.227 210.117 106.086V106.578C210.117 108.422 209.852 110.133 209.32 111.711C208.789 113.273 208.008 114.641 206.977 115.812C205.945 116.969 204.672 117.867 203.156 118.508C201.641 119.148 199.891 119.469 197.906 119.469C195.922 119.469 194.164 119.148 192.633 118.508C191.102 117.867 189.82 116.969 188.789 115.812C187.758 114.641 186.977 113.273 186.445 111.711C185.914 110.133 185.648 108.422 185.648 106.578ZM193.547 106.086V106.578C193.547 107.531 193.617 108.422 193.758 109.25C193.898 110.078 194.133 110.805 194.461 111.43C194.789 112.039 195.234 112.516 195.797 112.859C196.359 113.203 197.062 113.375 197.906 113.375C198.734 113.375 199.422 113.203 199.969 112.859C200.531 112.516 200.977 112.039 201.305 111.43C201.633 110.805 201.867 110.078 202.008 109.25C202.148 108.422 202.219 107.531 202.219 106.578V106.086C202.219 105.164 202.148 104.297 202.008 103.484C201.867 102.656 201.633 101.93 201.305 101.305C200.977 100.664 200.531 100.164 199.969 99.8047C199.406 99.4453 198.703 99.2656 197.859 99.2656C197.031 99.2656 196.336 99.4453 195.773 99.8047C195.227 100.164 194.789 100.664 194.461 101.305C194.133 101.93 193.898 102.656 193.758 103.484C193.617 104.297 193.547 105.164 193.547 106.086ZM226.992 93.6406V99.125H211.711V93.6406H226.992ZM214.922 87.3359H222.82V110.727C222.82 111.398 222.898 111.922 223.055 112.297C223.211 112.656 223.477 112.914 223.852 113.07C224.242 113.211 224.758 113.281 225.398 113.281C225.852 113.281 226.227 113.273 226.523 113.258C226.82 113.227 227.102 113.188 227.367 113.141V118.789C226.695 119.008 225.992 119.172 225.258 119.281C224.523 119.406 223.742 119.469 222.914 119.469C221.227 119.469 219.781 119.203 218.578 118.672C217.391 118.141 216.484 117.305 215.859 116.164C215.234 115.023 214.922 113.539 214.922 111.711V87.3359ZM237.914 116.023L244.477 93.6406H252.961L242.766 122.773C242.547 123.414 242.258 124.102 241.898 124.836C241.539 125.586 241.047 126.297 240.422 126.969C239.797 127.641 238.992 128.188 238.008 128.609C237.039 129.031 235.836 129.242 234.398 129.242C233.633 129.242 233.07 129.203 232.711 129.125C232.367 129.062 231.836 128.945 231.117 128.773V123.125C231.32 123.125 231.492 123.125 231.633 123.125C231.789 123.125 231.961 123.125 232.148 123.125C232.992 123.125 233.664 123.039 234.164 122.867C234.68 122.695 235.07 122.445 235.336 122.117C235.617 121.789 235.836 121.391 235.992 120.922L237.914 116.023ZM236.25 93.6406L241.242 111.383L242.109 119.75H236.812L227.789 93.6406H236.25ZM262.992 98.5156V128.75H255.094V93.6406H262.453L262.992 98.5156ZM278.555 106.016V106.508C278.555 108.352 278.344 110.062 277.922 111.641C277.5 113.219 276.875 114.594 276.047 115.766C275.219 116.938 274.188 117.852 272.953 118.508C271.734 119.148 270.32 119.469 268.711 119.469C267.195 119.469 265.891 119.133 264.797 118.461C263.703 117.789 262.789 116.859 262.055 115.672C261.32 114.484 260.727 113.125 260.273 111.594C259.82 110.062 259.461 108.445 259.195 106.742V106.109C259.461 104.281 259.82 102.586 260.273 101.023C260.727 99.4453 261.32 98.0703 262.055 96.8984C262.789 95.7266 263.695 94.8125 264.773 94.1562C265.867 93.5 267.172 93.1719 268.688 93.1719C270.297 93.1719 271.711 93.4766 272.93 94.0859C274.164 94.6953 275.195 95.5703 276.023 96.7109C276.867 97.8359 277.5 99.1875 277.922 100.766C278.344 102.344 278.555 104.094 278.555 106.016ZM270.656 106.508V106.016C270.656 105.031 270.586 104.133 270.445 103.32C270.305 102.492 270.078 101.773 269.766 101.164C269.469 100.555 269.07 100.086 268.57 99.7578C268.07 99.4297 267.453 99.2656 266.719 99.2656C265.875 99.2656 265.164 99.3984 264.586 99.6641C264.023 99.9141 263.57 100.305 263.227 100.836C262.898 101.352 262.664 102 262.523 102.781C262.398 103.547 262.344 104.445 262.359 105.477V107.398C262.328 108.586 262.445 109.633 262.711 110.539C262.977 111.43 263.438 112.125 264.094 112.625C264.75 113.125 265.641 113.375 266.766 113.375C267.516 113.375 268.141 113.203 268.641 112.859C269.141 112.5 269.539 112.008 269.836 111.383C270.133 110.742 270.344 110.008 270.469 109.18C270.594 108.352 270.656 107.461 270.656 106.508ZM290.414 93.6406V119H282.492V93.6406H290.414ZM282.023 87.1016C282.023 85.9766 282.43 85.0547 283.242 84.3359C284.055 83.6172 285.109 83.2578 286.406 83.2578C287.703 83.2578 288.758 83.6172 289.57 84.3359C290.383 85.0547 290.789 85.9766 290.789 87.1016C290.789 88.2266 290.383 89.1484 289.57 89.8672C288.758 90.5859 287.703 90.9453 286.406 90.9453C285.109 90.9453 284.055 90.5859 283.242 89.8672C282.43 89.1484 282.023 88.2266 282.023 87.1016ZM303.047 99.0547V119H295.148V93.6406H302.555L303.047 99.0547ZM302.109 105.453L300.258 105.5C300.258 103.562 300.492 101.836 300.961 100.32C301.43 98.7891 302.094 97.4922 302.953 96.4297C303.812 95.3672 304.836 94.5625 306.023 94.0156C307.227 93.4531 308.562 93.1719 310.031 93.1719C311.203 93.1719 312.273 93.3438 313.242 93.6875C314.227 94.0312 315.07 94.5859 315.773 95.3516C316.492 96.1172 317.039 97.1328 317.414 98.3984C317.805 99.6484 318 101.195 318 103.039V119H310.055V103.016C310.055 102 309.914 101.227 309.633 100.695C309.352 100.148 308.945 99.7734 308.414 99.5703C307.883 99.3672 307.234 99.2656 306.469 99.2656C305.656 99.2656 304.969 99.4219 304.406 99.7344C303.844 100.047 303.391 100.484 303.047 101.047C302.719 101.594 302.477 102.242 302.32 102.992C302.18 103.742 302.109 104.562 302.109 105.453ZM338.32 93.6406H345.492V118.016C345.492 120.359 344.953 122.344 343.875 123.969C342.797 125.609 341.289 126.852 339.352 127.695C337.43 128.555 335.18 128.984 332.602 128.984C331.461 128.984 330.297 128.836 329.109 128.539C327.922 128.258 326.812 127.836 325.781 127.273C324.75 126.711 323.883 126.016 323.18 125.188L326.484 120.547C327.125 121.266 327.93 121.875 328.898 122.375C329.867 122.891 331.008 123.148 332.32 123.148C333.461 123.148 334.414 122.945 335.18 122.539C335.961 122.133 336.555 121.539 336.961 120.758C337.367 119.992 337.57 119.062 337.57 117.969V99.6406L338.32 93.6406ZM321.469 106.625V106.133C321.469 104.211 321.703 102.461 322.172 100.883C322.656 99.2891 323.344 97.9219 324.234 96.7812C325.141 95.625 326.234 94.7344 327.516 94.1094C328.797 93.4844 330.242 93.1719 331.852 93.1719C333.586 93.1719 335.008 93.5078 336.117 94.1797C337.242 94.8359 338.141 95.7578 338.812 96.9453C339.5 98.1328 340.031 99.5234 340.406 101.117C340.797 102.695 341.125 104.398 341.391 106.227V106.812C341.125 108.531 340.758 110.156 340.289 111.688C339.836 113.203 339.242 114.547 338.508 115.719C337.773 116.891 336.852 117.812 335.742 118.484C334.648 119.141 333.336 119.469 331.805 119.469C330.211 119.469 328.773 119.148 327.492 118.508C326.227 117.867 325.141 116.969 324.234 115.812C323.344 114.656 322.656 113.297 322.172 111.734C321.703 110.172 321.469 108.469 321.469 106.625ZM329.367 106.133V106.625C329.367 107.578 329.453 108.461 329.625 109.273C329.812 110.086 330.094 110.805 330.469 111.43C330.844 112.039 331.305 112.516 331.852 112.859C332.414 113.203 333.07 113.375 333.82 113.375C334.961 113.375 335.883 113.133 336.586 112.648C337.289 112.164 337.797 111.477 338.109 110.586C338.422 109.695 338.555 108.648 338.508 107.445V105.594C338.539 104.562 338.469 103.656 338.297 102.875C338.125 102.078 337.852 101.414 337.477 100.883C337.117 100.352 336.633 99.9531 336.023 99.6875C335.43 99.4062 334.711 99.2656 333.867 99.2656C333.133 99.2656 332.484 99.4375 331.922 99.7812C331.359 100.125 330.891 100.609 330.516 101.234C330.141 101.844 329.852 102.57 329.648 103.414C329.461 104.242 329.367 105.148 329.367 106.133Z" fill="black"/>
<path d="M1134 0H1348C1356.28 0 1363 6.71573 1363 15V148C1363 156.284 1356.28 163 1348 163H1134V0Z" fill="#714DF4"/>
<path fill-rule="evenodd" clip-rule="evenodd" d="M1202.75 46.5018C1202.75 45.3973 1203.65 44.5018 1204.75 44.5018H1292.25C1293.35 44.5018 1294.25 45.3973 1294.25 46.5018V116.498C1294.25 117.603 1293.35 118.498 1292.25 118.498H1204.75C1203.65 118.498 1202.75 117.603 1202.75 116.498V46.5018ZM1206.75 48.5018V52.9963H1290.25V48.5018H1206.75ZM1290.25 56.9963H1235.19V114.498H1290.25V56.9963ZM1231.19 114.498V56.9963H1206.75V114.498H1231.19Z" fill="white"/>
<path fill-rule="evenodd" clip-rule="evenodd" d="M1209.72 62.3022C1209.72 61.1976 1210.62 60.3022 1211.72 60.3022H1225.72C1226.83 60.3022 1227.72 61.1976 1227.72 62.3022V81.6974C1227.72 82.802 1226.83 83.6974 1225.72 83.6974H1211.72C1210.62 83.6974 1209.72 82.802 1209.72 81.6974V62.3022ZM1213.72 64.3022V79.6974H1223.72V64.3022H1213.72ZM1239.33 63.1982C1239.33 62.0936 1240.22 61.1982 1241.33 61.1982H1284.25C1285.36 61.1982 1286.25 62.0936 1286.25 63.1982V109.407C1286.25 110.511 1285.36 111.407 1284.25 111.407H1241.33C1240.22 111.407 1239.33 110.511 1239.33 109.407V63.1982ZM1243.33 65.1982V107.407H1282.25V65.1982H1243.33ZM1209.56 93.4381C1209.56 92.3336 1210.46 91.4381 1211.56 91.4381H1220.48C1221.59 91.4381 1222.48 92.3336 1222.48 93.4381C1222.48 94.5427 1221.59 95.4381 1220.48 95.4381H1211.56C1210.46 95.4381 1209.56 94.5427 1209.56 93.4381ZM1209.56 100.438C1209.56 99.3335 1210.46 98.4381 1211.56 98.4381H1226.1C1227.21 98.4381 1228.1 99.3335 1228.1 100.438C1228.1 101.543 1227.21 102.438 1226.1 102.438H1211.56C1210.46 102.438 1209.56 101.543 1209.56 100.438ZM1209.56 107.438C1209.56 106.334 1210.46 105.438 1211.56 105.438H1220.48C1221.59 105.438 1222.48 106.334 1222.48 107.438C1222.48 108.543 1221.59 109.438 1220.48 109.438H1211.56C1210.46 109.438 1209.56 108.543 1209.56 107.438Z" fill="white"/>
</svg>
