<svg width="1363" height="163" viewBox="0 0 1363 163" fill="none" xmlns="http://www.w3.org/2000/svg">
<path d="M0 15C0 6.71573 6.71573 0 15 0H37V163H15C6.71573 163 0 156.284 0 148V15Z" fill="#424242"/>
<rect width="1097" height="163" transform="translate(37)" fill="#F0F0F0"/>
<path d="M101.906 53.9219L94.3945 51.2383V48.0859L104.602 52.375V54.6367L101.906 53.9219ZM94.3945 56.1719L101.918 53.4297L104.602 52.7852V55.0352L94.3945 59.3242V56.1719ZM119.543 54.918H115.195V52.1758H119.543C120.215 52.1758 120.762 52.0664 121.184 51.8477C121.605 51.6211 121.914 51.3086 122.109 50.9102C122.305 50.5117 122.402 50.0625 122.402 49.5625C122.402 49.0547 122.305 48.582 122.109 48.1445C121.914 47.707 121.605 47.3555 121.184 47.0898C120.762 46.8242 120.215 46.6914 119.543 46.6914H116.414V61H112.898V43.9375H119.543C120.879 43.9375 122.023 44.1797 122.977 44.6641C123.938 45.1406 124.672 45.8008 125.18 46.6445C125.688 47.4883 125.941 48.4531 125.941 49.5391C125.941 50.6406 125.688 51.5938 125.18 52.3984C124.672 53.2031 123.938 53.8242 122.977 54.2617C122.023 54.6992 120.879 54.918 119.543 54.918ZM131.531 51.0859V61H128.156V48.3203H131.332L131.531 51.0859ZM135.352 48.2383L135.293 51.3672C135.129 51.3438 134.93 51.3242 134.695 51.3086C134.469 51.2852 134.262 51.2734 134.074 51.2734C133.598 51.2734 133.184 51.3359 132.832 51.4609C132.488 51.5781 132.199 51.7539 131.965 51.9883C131.738 52.2227 131.566 52.5078 131.449 52.8438C131.34 53.1797 131.277 53.5625 131.262 53.9922L130.582 53.7812C130.582 52.9609 130.664 52.207 130.828 51.5195C130.992 50.8242 131.23 50.2188 131.543 49.7031C131.863 49.1875 132.254 48.7891 132.715 48.5078C133.176 48.2266 133.703 48.0859 134.297 48.0859C134.484 48.0859 134.676 48.1016 134.871 48.1328C135.066 48.1562 135.227 48.1914 135.352 48.2383ZM142.547 61.2344C141.562 61.2344 140.68 61.0781 139.898 60.7656C139.117 60.4453 138.453 60.0039 137.906 59.4414C137.367 58.8789 136.953 58.2266 136.664 57.4844C136.375 56.7344 136.23 55.9375 136.23 55.0938V54.625C136.23 53.6641 136.367 52.7852 136.641 51.9883C136.914 51.1914 137.305 50.5 137.812 49.9141C138.328 49.3281 138.953 48.8789 139.688 48.5664C140.422 48.2461 141.25 48.0859 142.172 48.0859C143.07 48.0859 143.867 48.2344 144.562 48.5312C145.258 48.8281 145.84 49.25 146.309 49.7969C146.785 50.3438 147.145 51 147.387 51.7656C147.629 52.5234 147.75 53.3672 147.75 54.2969V55.7031H137.672V53.4531H144.434V53.1953C144.434 52.7266 144.348 52.3086 144.176 51.9414C144.012 51.5664 143.762 51.2695 143.426 51.0508C143.09 50.832 142.66 50.7227 142.137 50.7227C141.691 50.7227 141.309 50.8203 140.988 51.0156C140.668 51.2109 140.406 51.4844 140.203 51.8359C140.008 52.1875 139.859 52.6016 139.758 53.0781C139.664 53.5469 139.617 54.0625 139.617 54.625V55.0938C139.617 55.6016 139.688 56.0703 139.828 56.5C139.977 56.9297 140.184 57.3008 140.449 57.6133C140.723 57.9258 141.051 58.168 141.434 58.3398C141.824 58.5117 142.266 58.5977 142.758 58.5977C143.367 58.5977 143.934 58.4805 144.457 58.2461C144.988 58.0039 145.445 57.6406 145.828 57.1562L147.469 58.9375C147.203 59.3203 146.84 59.6875 146.379 60.0391C145.926 60.3906 145.379 60.6797 144.738 60.9062C144.098 61.125 143.367 61.2344 142.547 61.2344ZM157.16 58.2344V43H160.559V61H157.5L157.16 58.2344ZM149.145 54.8125V54.5664C149.145 53.5977 149.254 52.7188 149.473 51.9297C149.691 51.1328 150.012 50.4492 150.434 49.8789C150.855 49.3086 151.375 48.8672 151.992 48.5547C152.609 48.2422 153.312 48.0859 154.102 48.0859C154.844 48.0859 155.492 48.2422 156.047 48.5547C156.609 48.8672 157.086 49.3125 157.477 49.8906C157.875 50.4609 158.195 51.1367 158.438 51.918C158.68 52.6914 158.855 53.5391 158.965 54.4609V55C158.855 55.8828 158.68 56.7031 158.438 57.4609C158.195 58.2188 157.875 58.8828 157.477 59.4531C157.086 60.0156 156.609 60.4531 156.047 60.7656C155.484 61.0781 154.828 61.2344 154.078 61.2344C153.289 61.2344 152.586 61.0742 151.969 60.7539C151.359 60.4336 150.844 59.9844 150.422 59.4062C150.008 58.8281 149.691 58.1484 149.473 57.3672C149.254 56.5859 149.145 55.7344 149.145 54.8125ZM152.52 54.5664V54.8125C152.52 55.3359 152.559 55.8242 152.637 56.2773C152.723 56.7305 152.859 57.1328 153.047 57.4844C153.242 57.8281 153.492 58.0977 153.797 58.293C154.109 58.4805 154.488 58.5742 154.934 58.5742C155.512 58.5742 155.988 58.4453 156.363 58.1875C156.738 57.9219 157.023 57.5586 157.219 57.0977C157.422 56.6367 157.539 56.1055 157.57 55.5039V53.9688C157.547 53.4766 157.477 53.0352 157.359 52.6445C157.25 52.2461 157.086 51.9062 156.867 51.625C156.656 51.3438 156.391 51.125 156.07 50.9688C155.758 50.8125 155.387 50.7344 154.957 50.7344C154.52 50.7344 154.145 50.8359 153.832 51.0391C153.52 51.2344 153.266 51.5039 153.07 51.8477C152.883 52.1914 152.742 52.5977 152.648 53.0664C152.562 53.5273 152.52 54.0273 152.52 54.5664ZM166.758 48.3203V61H163.371V48.3203H166.758ZM163.16 45.0156C163.16 44.5234 163.332 44.1172 163.676 43.7969C164.02 43.4766 164.48 43.3164 165.059 43.3164C165.629 43.3164 166.086 43.4766 166.43 43.7969C166.781 44.1172 166.957 44.5234 166.957 45.0156C166.957 45.5078 166.781 45.9141 166.43 46.2344C166.086 46.5547 165.629 46.7148 165.059 46.7148C164.48 46.7148 164.02 46.5547 163.676 46.2344C163.332 45.9141 163.16 45.5078 163.16 45.0156ZM174.785 58.5977C175.199 58.5977 175.566 58.5195 175.887 58.3633C176.207 58.1992 176.457 57.9727 176.637 57.6836C176.824 57.3867 176.922 57.0391 176.93 56.6406H180.105C180.098 57.5312 179.859 58.3242 179.391 59.0195C178.922 59.707 178.293 60.25 177.504 60.6484C176.715 61.0391 175.832 61.2344 174.855 61.2344C173.871 61.2344 173.012 61.0703 172.277 60.7422C171.551 60.4141 170.945 59.9609 170.461 59.3828C169.977 58.7969 169.613 58.1172 169.371 57.3438C169.129 56.5625 169.008 55.7266 169.008 54.8359V54.4961C169.008 53.5977 169.129 52.7617 169.371 51.9883C169.613 51.207 169.977 50.5273 170.461 49.9492C170.945 49.3633 171.551 48.9062 172.277 48.5781C173.004 48.25 173.855 48.0859 174.832 48.0859C175.871 48.0859 176.781 48.2852 177.562 48.6836C178.352 49.082 178.969 49.6523 179.414 50.3945C179.867 51.1289 180.098 52 180.105 53.0078H176.93C176.922 52.5859 176.832 52.2031 176.66 51.8594C176.496 51.5156 176.254 51.2422 175.934 51.0391C175.621 50.8281 175.234 50.7227 174.773 50.7227C174.281 50.7227 173.879 50.8281 173.566 51.0391C173.254 51.2422 173.012 51.5234 172.84 51.8828C172.668 52.2344 172.547 52.6367 172.477 53.0898C172.414 53.5352 172.383 54.0039 172.383 54.4961V54.8359C172.383 55.3281 172.414 55.8008 172.477 56.2539C172.539 56.707 172.656 57.1094 172.828 57.4609C173.008 57.8125 173.254 58.0898 173.566 58.293C173.879 58.4961 174.285 58.5977 174.785 58.5977ZM181.523 54.7891V54.543C181.523 53.6133 181.656 52.7578 181.922 51.9766C182.188 51.1875 182.574 50.5039 183.082 49.9258C183.59 49.3477 184.215 48.8984 184.957 48.5781C185.699 48.25 186.551 48.0859 187.512 48.0859C188.473 48.0859 189.328 48.25 190.078 48.5781C190.828 48.8984 191.457 49.3477 191.965 49.9258C192.48 50.5039 192.871 51.1875 193.137 51.9766C193.402 52.7578 193.535 53.6133 193.535 54.543V54.7891C193.535 55.7109 193.402 56.5664 193.137 57.3555C192.871 58.1367 192.48 58.8203 191.965 59.4062C191.457 59.9844 190.832 60.4336 190.09 60.7539C189.348 61.0742 188.496 61.2344 187.535 61.2344C186.574 61.2344 185.719 61.0742 184.969 60.7539C184.227 60.4336 183.598 59.9844 183.082 59.4062C182.574 58.8203 182.188 58.1367 181.922 57.3555C181.656 56.5664 181.523 55.7109 181.523 54.7891ZM184.898 54.543V54.7891C184.898 55.3203 184.945 55.8164 185.039 56.2773C185.133 56.7383 185.281 57.1445 185.484 57.4961C185.695 57.8398 185.969 58.1094 186.305 58.3047C186.641 58.5 187.051 58.5977 187.535 58.5977C188.004 58.5977 188.406 58.5 188.742 58.3047C189.078 58.1094 189.348 57.8398 189.551 57.4961C189.754 57.1445 189.902 56.7383 189.996 56.2773C190.098 55.8164 190.148 55.3203 190.148 54.7891V54.543C190.148 54.0273 190.098 53.543 189.996 53.0898C189.902 52.6289 189.75 52.2227 189.539 51.8711C189.336 51.5117 189.066 51.2305 188.73 51.0273C188.395 50.8242 187.988 50.7227 187.512 50.7227C187.035 50.7227 186.629 50.8242 186.293 51.0273C185.965 51.2305 185.695 51.5117 185.484 51.8711C185.281 52.2227 185.133 52.6289 185.039 53.0898C184.945 53.543 184.898 54.0273 184.898 54.543ZM203.098 58.2344V43H206.496V61H203.438L203.098 58.2344ZM195.082 54.8125V54.5664C195.082 53.5977 195.191 52.7188 195.41 51.9297C195.629 51.1328 195.949 50.4492 196.371 49.8789C196.793 49.3086 197.312 48.8672 197.93 48.5547C198.547 48.2422 199.25 48.0859 200.039 48.0859C200.781 48.0859 201.43 48.2422 201.984 48.5547C202.547 48.8672 203.023 49.3125 203.414 49.8906C203.812 50.4609 204.133 51.1367 204.375 51.918C204.617 52.6914 204.793 53.5391 204.902 54.4609V55C204.793 55.8828 204.617 56.7031 204.375 57.4609C204.133 58.2188 203.812 58.8828 203.414 59.4531C203.023 60.0156 202.547 60.4531 201.984 60.7656C201.422 61.0781 200.766 61.2344 200.016 61.2344C199.227 61.2344 198.523 61.0742 197.906 60.7539C197.297 60.4336 196.781 59.9844 196.359 59.4062C195.945 58.8281 195.629 58.1484 195.41 57.3672C195.191 56.5859 195.082 55.7344 195.082 54.8125ZM198.457 54.5664V54.8125C198.457 55.3359 198.496 55.8242 198.574 56.2773C198.66 56.7305 198.797 57.1328 198.984 57.4844C199.18 57.8281 199.43 58.0977 199.734 58.293C200.047 58.4805 200.426 58.5742 200.871 58.5742C201.449 58.5742 201.926 58.4453 202.301 58.1875C202.676 57.9219 202.961 57.5586 203.156 57.0977C203.359 56.6367 203.477 56.1055 203.508 55.5039V53.9688C203.484 53.4766 203.414 53.0352 203.297 52.6445C203.188 52.2461 203.023 51.9062 202.805 51.625C202.594 51.3438 202.328 51.125 202.008 50.9688C201.695 50.8125 201.324 50.7344 200.895 50.7344C200.457 50.7344 200.082 50.8359 199.77 51.0391C199.457 51.2344 199.203 51.5039 199.008 51.8477C198.82 52.1914 198.68 52.5977 198.586 53.0664C198.5 53.5273 198.457 54.0273 198.457 54.5664ZM214.969 61.2344C213.984 61.2344 213.102 61.0781 212.32 60.7656C211.539 60.4453 210.875 60.0039 210.328 59.4414C209.789 58.8789 209.375 58.2266 209.086 57.4844C208.797 56.7344 208.652 55.9375 208.652 55.0938V54.625C208.652 53.6641 208.789 52.7852 209.062 51.9883C209.336 51.1914 209.727 50.5 210.234 49.9141C210.75 49.3281 211.375 48.8789 212.109 48.5664C212.844 48.2461 213.672 48.0859 214.594 48.0859C215.492 48.0859 216.289 48.2344 216.984 48.5312C217.68 48.8281 218.262 49.25 218.73 49.7969C219.207 50.3438 219.566 51 219.809 51.7656C220.051 52.5234 220.172 53.3672 220.172 54.2969V55.7031H210.094V53.4531H216.855V53.1953C216.855 52.7266 216.77 52.3086 216.598 51.9414C216.434 51.5664 216.184 51.2695 215.848 51.0508C215.512 50.832 215.082 50.7227 214.559 50.7227C214.113 50.7227 213.73 50.8203 213.41 51.0156C213.09 51.2109 212.828 51.4844 212.625 51.8359C212.43 52.1875 212.281 52.6016 212.18 53.0781C212.086 53.5469 212.039 54.0625 212.039 54.625V55.0938C212.039 55.6016 212.109 56.0703 212.25 56.5C212.398 56.9297 212.605 57.3008 212.871 57.6133C213.145 57.9258 213.473 58.168 213.855 58.3398C214.246 58.5117 214.688 58.5977 215.18 58.5977C215.789 58.5977 216.355 58.4805 216.879 58.2461C217.41 58.0039 217.867 57.6406 218.25 57.1562L219.891 58.9375C219.625 59.3203 219.262 59.6875 218.801 60.0391C218.348 60.3906 217.801 60.6797 217.16 60.9062C216.52 61.125 215.789 61.2344 214.969 61.2344Z" fill="#888888"/>
<path d="M118.594 98.4219V104.75H101.086V98.4219H118.594ZM103.828 84.875V119H95.6016V84.875H103.828ZM124.125 84.875V119H115.922V84.875H124.125ZM127.992 106.578V106.086C127.992 104.227 128.258 102.516 128.789 100.953C129.32 99.375 130.102 98.0078 131.133 96.8516C132.164 95.6953 133.438 94.7969 134.953 94.1562C136.469 93.5 138.219 93.1719 140.203 93.1719C142.203 93.1719 143.961 93.5 145.477 94.1562C147.008 94.7969 148.289 95.6953 149.32 96.8516C150.352 98.0078 151.133 99.375 151.664 100.953C152.195 102.516 152.461 104.227 152.461 106.086V106.578C152.461 108.422 152.195 110.133 151.664 111.711C151.133 113.273 150.352 114.641 149.32 115.812C148.289 116.969 147.016 117.867 145.5 118.508C143.984 119.148 142.234 119.469 140.25 119.469C138.266 119.469 136.508 119.148 134.977 118.508C133.445 117.867 132.164 116.969 131.133 115.812C130.102 114.641 129.32 113.273 128.789 111.711C128.258 110.133 127.992 108.422 127.992 106.578ZM135.891 106.086V106.578C135.891 107.531 135.961 108.422 136.102 109.25C136.242 110.078 136.477 110.805 136.805 111.43C137.133 112.039 137.578 112.516 138.141 112.859C138.703 113.203 139.406 113.375 140.25 113.375C141.078 113.375 141.766 113.203 142.312 112.859C142.875 112.516 143.32 112.039 143.648 111.43C143.977 110.805 144.211 110.078 144.352 109.25C144.492 108.422 144.562 107.531 144.562 106.578V106.086C144.562 105.164 144.492 104.297 144.352 103.484C144.211 102.656 143.977 101.93 143.648 101.305C143.32 100.664 142.875 100.164 142.312 99.8047C141.75 99.4453 141.047 99.2656 140.203 99.2656C139.375 99.2656 138.68 99.4453 138.117 99.8047C137.57 100.164 137.133 100.664 136.805 101.305C136.477 101.93 136.242 102.656 136.102 103.484C135.961 104.297 135.891 105.164 135.891 106.086ZM163.688 111.453L168.375 93.6406H173.32L171.562 102.57L166.922 119H162.961L163.688 111.453ZM161.836 93.6406L164.742 111.312L165.07 119H160.266L154.266 93.6406H161.836ZM177.492 110.938L180.422 93.6406H187.992L182.039 119H177.234L177.492 110.938ZM173.883 93.6406L178.617 111.406L179.344 119H175.336L170.789 102.617L169.102 93.6406H173.883ZM218.297 84.875V119H210.07V84.875H218.297ZM228.562 84.875V91.2266H200.039V84.875H228.562ZM225.773 106.578V106.086C225.773 104.227 226.039 102.516 226.57 100.953C227.102 99.375 227.883 98.0078 228.914 96.8516C229.945 95.6953 231.219 94.7969 232.734 94.1562C234.25 93.5 236 93.1719 237.984 93.1719C239.984 93.1719 241.742 93.5 243.258 94.1562C244.789 94.7969 246.07 95.6953 247.102 96.8516C248.133 98.0078 248.914 99.375 249.445 100.953C249.977 102.516 250.242 104.227 250.242 106.086V106.578C250.242 108.422 249.977 110.133 249.445 111.711C248.914 113.273 248.133 114.641 247.102 115.812C246.07 116.969 244.797 117.867 243.281 118.508C241.766 119.148 240.016 119.469 238.031 119.469C236.047 119.469 234.289 119.148 232.758 118.508C231.227 117.867 229.945 116.969 228.914 115.812C227.883 114.641 227.102 113.273 226.57 111.711C226.039 110.133 225.773 108.422 225.773 106.578ZM233.672 106.086V106.578C233.672 107.531 233.742 108.422 233.883 109.25C234.023 110.078 234.258 110.805 234.586 111.43C234.914 112.039 235.359 112.516 235.922 112.859C236.484 113.203 237.188 113.375 238.031 113.375C238.859 113.375 239.547 113.203 240.094 112.859C240.656 112.516 241.102 112.039 241.43 111.43C241.758 110.805 241.992 110.078 242.133 109.25C242.273 108.422 242.344 107.531 242.344 106.578V106.086C242.344 105.164 242.273 104.297 242.133 103.484C241.992 102.656 241.758 101.93 241.43 101.305C241.102 100.664 240.656 100.164 240.094 99.8047C239.531 99.4453 238.828 99.2656 237.984 99.2656C237.156 99.2656 236.461 99.4453 235.898 99.8047C235.352 100.164 234.914 100.664 234.586 101.305C234.258 101.93 234.023 102.656 233.883 103.484C233.742 104.297 233.672 105.164 233.672 106.086ZM266.086 84.875H279.516C282.141 84.875 284.422 85.2656 286.359 86.0469C288.297 86.8281 289.789 87.9844 290.836 89.5156C291.898 91.0469 292.43 92.9375 292.43 95.1875C292.43 97.1406 292.125 98.7734 291.516 100.086C290.906 101.398 290.055 102.484 288.961 103.344C287.883 104.188 286.625 104.883 285.188 105.43L282.492 106.953H271.219L271.172 100.602H279.516C280.562 100.602 281.43 100.414 282.117 100.039C282.805 99.6641 283.32 99.1328 283.664 98.4453C284.023 97.7422 284.203 96.9062 284.203 95.9375C284.203 94.9531 284.023 94.1094 283.664 93.4062C283.305 92.7031 282.773 92.1641 282.07 91.7891C281.383 91.4141 280.531 91.2266 279.516 91.2266H274.312V119H266.086V84.875ZM284.766 119L277.219 103.906L285.938 103.859L293.578 118.648V119H284.766ZM311.836 112.836V93.6406H319.758V119H312.352L311.836 112.836ZM312.586 107.68L314.648 107.633C314.648 109.336 314.445 110.914 314.039 112.367C313.633 113.805 313.031 115.055 312.234 116.117C311.453 117.18 310.484 118.008 309.328 118.602C308.188 119.18 306.867 119.469 305.367 119.469C304.117 119.469 302.969 119.297 301.922 118.953C300.891 118.594 300 118.039 299.25 117.289C298.5 116.523 297.914 115.547 297.492 114.359C297.086 113.156 296.883 111.719 296.883 110.047V93.6406H304.781V110.094C304.781 110.656 304.852 111.141 304.992 111.547C305.133 111.953 305.336 112.297 305.602 112.578C305.867 112.844 306.195 113.047 306.586 113.188C306.992 113.312 307.453 113.375 307.969 113.375C309.156 113.375 310.086 113.125 310.758 112.625C311.43 112.125 311.898 111.445 312.164 110.586C312.445 109.727 312.586 108.758 312.586 107.68ZM331.875 99.0547V119H323.977V93.6406H331.383L331.875 99.0547ZM330.938 105.453L329.086 105.5C329.086 103.562 329.32 101.836 329.789 100.32C330.258 98.7891 330.922 97.4922 331.781 96.4297C332.641 95.3672 333.664 94.5625 334.852 94.0156C336.055 93.4531 337.391 93.1719 338.859 93.1719C340.031 93.1719 341.102 93.3438 342.07 93.6875C343.055 94.0312 343.898 94.5859 344.602 95.3516C345.32 96.1172 345.867 97.1328 346.242 98.3984C346.633 99.6484 346.828 101.195 346.828 103.039V119H338.883V103.016C338.883 102 338.742 101.227 338.461 100.695C338.18 100.148 337.773 99.7734 337.242 99.5703C336.711 99.3672 336.062 99.2656 335.297 99.2656C334.484 99.2656 333.797 99.4219 333.234 99.7344C332.672 100.047 332.219 100.484 331.875 101.047C331.547 101.594 331.305 102.242 331.148 102.992C331.008 103.742 330.938 104.562 330.938 105.453ZM363.773 108.195H357.047C357.047 106.82 357.141 105.609 357.328 104.562C357.531 103.5 357.875 102.547 358.359 101.703C358.844 100.859 359.5 100.078 360.328 99.3594C361.062 98.75 361.695 98.1641 362.227 97.6016C362.758 97.0391 363.164 96.4688 363.445 95.8906C363.727 95.3125 363.867 94.6953 363.867 94.0391C363.867 93.2266 363.75 92.5625 363.516 92.0469C363.297 91.5312 362.961 91.1484 362.508 90.8984C362.07 90.6328 361.516 90.5 360.844 90.5C360.297 90.5 359.781 90.6328 359.297 90.8984C358.828 91.1641 358.445 91.5781 358.148 92.1406C357.852 92.6875 357.688 93.4141 357.656 94.3203H349.711C349.758 91.9922 350.273 90.1016 351.258 88.6484C352.258 87.1797 353.586 86.1094 355.242 85.4375C356.914 84.75 358.781 84.4062 360.844 84.4062C363.125 84.4062 365.086 84.7578 366.727 85.4609C368.367 86.1641 369.625 87.2109 370.5 88.6016C371.375 89.9766 371.812 91.6719 371.812 93.6875C371.812 95.0312 371.555 96.2031 371.039 97.2031C370.539 98.1875 369.859 99.1094 369 99.9688C368.156 100.812 367.211 101.719 366.164 102.688C365.258 103.484 364.641 104.297 364.312 105.125C363.984 105.938 363.805 106.961 363.773 108.195ZM356.086 115.32C356.086 114.195 356.492 113.258 357.305 112.508C358.117 111.742 359.172 111.359 360.469 111.359C361.766 111.359 362.82 111.742 363.633 112.508C364.445 113.258 364.852 114.195 364.852 115.32C364.852 116.445 364.445 117.391 363.633 118.156C362.82 118.906 361.766 119.281 360.469 119.281C359.172 119.281 358.117 118.906 357.305 118.156C356.492 117.391 356.086 116.445 356.086 115.32Z" fill="black"/>
<path d="M1134 0H1348C1356.28 0 1363 6.71573 1363 15V148C1363 156.284 1356.28 163 1348 163H1134V0Z" fill="#714DF4"/>
<path d="M1260.62 78.8078C1263.81 78.8078 1266.93 79.7552 1269.59 81.5302C1272.25 83.3052 1274.32 85.8281 1275.54 88.7798C1276.76 91.7315 1277.08 94.9795 1276.46 98.1131C1275.84 101.247 1274.3 104.125 1272.04 106.384C1269.78 108.643 1266.9 110.182 1263.77 110.805C1260.63 111.428 1257.39 111.108 1254.43 109.886C1251.48 108.663 1248.96 106.593 1247.18 103.936C1245.41 101.28 1244.46 98.1565 1244.46 94.9616C1244.46 90.6774 1246.16 86.5686 1249.19 83.5392C1252.22 80.5097 1256.33 78.8078 1260.62 78.8078ZM1260.62 73.4232C1256.36 73.4232 1252.19 74.6864 1248.65 77.0531C1245.11 79.4198 1242.35 82.7836 1240.72 86.7192C1239.09 90.6549 1238.66 94.9855 1239.49 99.1636C1240.32 103.342 1242.37 107.179 1245.39 110.192C1248.4 113.204 1252.24 115.255 1256.41 116.086C1260.59 116.917 1264.92 116.491 1268.86 114.861C1272.79 113.23 1276.16 110.47 1278.52 106.928C1280.89 103.386 1282.15 99.2215 1282.15 94.9616C1282.15 89.2493 1279.88 83.7709 1275.85 79.7317C1271.81 75.6924 1266.33 73.4232 1260.62 73.4232Z" fill="white"/>
<path d="M1274.08 46.4999H1220.23C1218.8 46.4999 1217.43 47.0672 1216.42 48.0771C1215.41 49.0869 1214.85 50.4565 1214.85 51.8845V105.731C1214.85 107.159 1215.41 108.528 1216.42 109.538C1217.43 110.548 1218.8 111.115 1220.23 111.115H1231V105.731H1220.23V68.0383H1279.46V51.8845C1279.46 50.4565 1278.89 49.0869 1277.88 48.0771C1276.87 47.0672 1275.5 46.4999 1274.08 46.4999ZM1220.23 62.6537V51.8845H1274.08V62.6537H1220.23Z" fill="white"/>
<path d="M1255.23 86.8848V103.039L1268.69 94.9617L1255.23 86.8848Z" fill="white"/>
</svg>
